<?xml version="1.0" encoding="UTF-8"?>
<svg width="56px" height="56px" viewBox="0 0 56 56" version="1.1" xmlns="http://www.w3.org/2000/svg" xmlns:xlink="http://www.w3.org/1999/xlink">
    <title>-mockplus-</title>
    <g id="页面-1" stroke="none" stroke-width="1" fill="none" fill-rule="evenodd">
        <g id="联系我们/加拿大" transform="translate(-628.000000, -396.000000)">
            <g id="编组-2" transform="translate(0.000000, 118.000000)">
                <g id="联系我们/点餐" transform="translate(368.000000, 228.000000)">
                    <g id="icon/Order-Online/red备份" transform="translate(260.000000, 50.000000)">
                        <circle id="椭圆形" fill="#FDF0F1" cx="28" cy="28" r="28"></circle>
                        <g id="icon/Order-Online" transform="translate(15.811765, 15.235294)" fill-rule="nonzero">
                            <g id="编组-3">
                                <g id="订单">
                                    <rect id="矩形" fill="#000000" opacity="0" x="0" y="0" width="25.2" height="25.2"></rect>
                                    <path d="M18.06,2.09999999 C20.265,2.09999999 22.05,3.88500001 22.05,6.09000001 L22.05,12.6 L20.474,12.6 L20.475,6.09000001 C20.475,4.725 19.425,3.67499999 18.06,3.67499999 L7.13999999,3.67499999 C5.77499998,3.67499999 4.725,4.725 4.725,6.09000001 L4.725,19.005 C4.725,20.37 5.77500001,21.42 7.13999999,21.42 L9.954,21.42 L9.954,23.1 L7.13999999,23.1 C4.93499999,23.1 3.15,21.315 3.15,19.11 L3.15,6.09000001 C3.15,3.88500001 4.93499999,2.09999999 7.13999999,2.09999999 L18.06,2.09999999 Z M11.9514706,13.9711765 C12.2664706,13.9711765 12.5814706,14.2861765 12.5814706,14.6011765 L12.5814706,14.9161765 C12.5814706,15.2311765 12.2664706,15.5461765 11.9514706,15.5461765 L7.45499999,15.5461765 C7.13999999,15.5461765 6.82499999,15.2311765 6.82499999,14.9161765 L6.82499999,14.6011765 C6.82499999,14.2861765 7.13999999,13.9711765 7.45499999,13.9711765 L11.9514706,13.9711765 Z M14.6752941,8.61000001 C15.0952941,8.61000001 15.5152941,8.92500001 15.5152941,9.45 C15.4102941,9.97499999 14.9902941,10.29 14.5702941,10.29 L7.66500001,10.29 C7.245,10.29 6.82499999,9.97499999 6.82499999,9.45 C6.82499999,9.02999999 7.13999999,8.61000001 7.66500001,8.61000001 L14.6752941,8.61000001 Z" id="形状结合" stroke="#EC6F79" stroke-width="0.936" fill="#EC6F79"></path>
                                </g>
                                <g id="出餐" transform="translate(13.109029, 13.341176)">
                                    <rect id="矩形" fill="#000000" opacity="0" x="0" y="0" width="11.8588235" height="11.8588235"></rect>
                                    <path d="M5.96229305,3.12722567 L5.59062674,3.14528342 C3.20646418,3.26009839 1.27697968,5.24860749 1.09235936,7.7486631 L10.5201241,7.7486631 C10.3422417,5.33781819 8.54077861,3.38892835 6.2611893,3.15768129 L5.96229305,3.12722567 L5.96229305,3.12722567 Z M10.9478503,8.55721925 L0.664902672,8.55721925 C0.44632299,8.55721925 0.269518713,8.37152086 0.269518713,8.14162139 C0.269518713,5.02409839 2.6164877,2.47903315 5.55181604,2.33753583 L5.55181604,1.49367273 C5.55181604,1.26377327 5.72862032,1.07807487 5.9472,1.07807487 C6.1660492,1.07807487 6.34285348,1.26377326 6.34285348,1.49367273 L6.34285348,2.35289839 C9.14584814,2.63724064 11.3432342,5.12382032 11.3432342,8.14135187 C11.3432342,8.37125134 11.16643,8.55694973 10.9478503,8.55694973 L10.9478503,8.55721925 Z M0.673796765,10.4138941 L11.1850267,10.4138941 C11.4083033,10.4138941 11.5893048,10.5948955 11.5893048,10.8181721 C11.5893048,11.0414488 11.4083033,11.2224502 11.1850267,11.2224502 L0.673796765,11.2224502 C0.450520159,11.2224502 0.269518713,11.0414487 0.269518713,10.8181721 C0.269518713,10.5948955 0.450520159,10.4138941 0.673796765,10.4138941 L0.673796765,10.4138941 Z" id="形状" stroke="#EC6F79" stroke-width="0.936" fill="#EC6F79"></path>
                                </g>
                                <circle id="椭圆形" fill="#EC6F79" cx="21.2562976" cy="12.9459598" r="1.23544176"></circle>
                                <circle id="椭圆形备份-2" fill="#EC6F79" cx="10.3394719" cy="22.2593225" r="1.28848715"></circle>
                            </g>
                        </g>
                    </g>
                </g>
            </g>
        </g>
    </g>
</svg>