<?xml version="1.0" encoding="UTF-8"?>
<svg width="31px" height="32px" viewBox="0 0 31 32" version="1.1" xmlns="http://www.w3.org/2000/svg" xmlns:xlink="http://www.w3.org/1999/xlink">
    <title>编组 3</title>
    <g id="北美官网" stroke="none" stroke-width="1" fill="none" fill-rule="evenodd">
        <g id="web/页面切图" transform="translate(-636.000000, -451.000000)">
            <g id="icon/Order-Online备份" transform="translate(617.000000, 433.000000)">
                <g id="编组-3" transform="translate(19.200000, 18.500000)">
                    <g id="订单" fill-rule="nonzero">
                        <rect id="矩形" fill="#000000" opacity="0" x="0" y="0" width="30.6" height="30.6"></rect>
                        <path d="M21.93,2.54999999 C24.6075,2.54999999 26.775,4.71750001 26.775,7.39500001 L26.774,15.3 L24.862,15.3 L24.8625,7.39500001 C24.8625,5.7375 23.5875,4.46249999 21.93,4.46249999 L8.66999999,4.46249999 C7.01249998,4.46249999 5.7375,5.7375 5.7375,7.39500001 L5.7375,23.0775 C5.7375,24.735 7.01250001,26.01 8.66999999,26.01 L12.087,26.01 L12.087,28.05 L8.66999999,28.05 C5.99249999,28.05 3.825,25.8825 3.825,23.205 L3.825,7.39500001 C3.825,4.71750001 5.99249999,2.54999999 8.66999999,2.54999999 L21.93,2.54999999 Z M14.5125,16.965 C14.895,16.965 15.2775,17.3475 15.2775,17.73 L15.2775,18.1125 C15.2775,18.495 14.895,18.8775 14.5125,18.8775 L9.05249999,18.8775 C8.66999999,18.8775 8.28749999,18.495 8.28749999,18.1125 L8.28749999,17.73 C8.28749999,17.3475 8.66999999,16.965 9.05249999,16.965 L14.5125,16.965 Z M17.82,10.455 C18.33,10.455 18.84,10.8375 18.84,11.475 C18.7125,12.1125 18.2025,12.495 17.6925,12.495 L9.30750001,12.495 C8.7975,12.495 8.28749999,12.1125 8.28749999,11.475 C8.28749999,10.965 8.66999999,10.455 9.30750001,10.455 L17.82,10.455 Z" id="形状结合" stroke="#FFFFFF" stroke-width="0.936" fill="#FFFFFF"></path>
                    </g>
                    <g id="出餐" transform="translate(15.918107, 16.200000)" fill-rule="nonzero">
                        <rect id="矩形" fill="#000000" opacity="0" x="0" y="0" width="14.4" height="14.4"></rect>
                        <path d="M7.23992728,3.79734546 L6.78861818,3.81927272 C3.89356365,3.95869091 1.55061818,6.37330909 1.32643637,9.40909091 L12.7744364,9.40909091 C12.5584364,6.48163637 10.3709455,4.11512728 7.60287272,3.83432728 L7.23992728,3.79734546 L7.23992728,3.79734546 Z M13.2938182,10.3909091 L0.807381816,10.3909091 C0.541963631,10.3909091 0.327272723,10.1654182 0.327272723,9.88625454 C0.327272723,6.10069091 3.17716363,3.01025454 6.74149091,2.83843637 L6.74149091,1.81374546 C6.74149091,1.53458183 6.95618182,1.30909091 7.2216,1.30909091 C7.48734546,1.30909091 7.70203637,1.53458182 7.70203637,1.81374546 L7.70203637,2.85709091 C11.1056727,3.20236363 13.7739273,6.22178182 13.7739273,9.88592728 C13.7739273,10.1650909 13.5592364,10.3905818 13.2938182,10.3905818 L13.2938182,10.3909091 Z M0.818181786,12.6454428 L13.5818182,12.6454428 C13.8529398,12.6454428 14.0727272,12.8652303 14.0727272,13.1363519 C14.0727272,13.4074735 13.8529398,13.627261 13.5818182,13.627261 L0.818181786,13.627261 C0.547060193,13.627261 0.327272723,13.4074735 0.327272723,13.1363519 C0.327272723,12.8652303 0.547060193,12.6454428 0.818181786,12.6454428 L0.818181786,12.6454428 Z" id="形状" stroke="#FFFFFF" stroke-width="0.936" fill="#FFFFFF"></path>
                    </g>
                    <circle id="椭圆形" fill="#FFFFFF" cx="25.8112185" cy="15.720094" r="1.50017928"></circle>
                    <circle id="椭圆形备份-2" fill="#FFFFFF" cx="12.555073" cy="27.0291774" r="1.56459153"></circle>
                </g>
            </g>
        </g>
    </g>
</svg>