<?xml version="1.0" encoding="UTF-8"?>
<svg width="31px" height="29px" viewBox="0 0 31 29" version="1.1" xmlns="http://www.w3.org/2000/svg" xmlns:xlink="http://www.w3.org/1999/xlink">
    <title>编组 2备份</title>
    <g id="北美官网" stroke="none" stroke-width="1" fill="none" fill-rule="evenodd">
        <g id="web/页面切图" transform="translate(-635.000000, -296.000000)" fill-rule="nonzero">
            <g id="编组-8" transform="translate(616.000000, 277.000000)">
                <g id="编组-2备份" transform="translate(20.000000, 19.000000)">
                    <g id="投诉建议">
                        <rect id="矩形" fill="#666666" opacity="0" x="0" y="0" width="29" height="29"></rect>
                        <path d="M28.188,13.833 C27.7878,13.833 27.463,14.1578 27.463,14.558 L27.463,25.3866 C27.463,26.1986 26.4944,26.883 25.346,26.883 L3.77,26.883 C2.6216,26.883 1.653,26.1986 1.653,25.3866 L1.653,14.558 C1.653,14.1578 1.3282,13.833 0.928,13.833 C0.5278,13.833 0.203,14.1578 0.203,14.558 L0.203,25.3866 C0.203,27.0106 1.8038,28.333 3.77,28.333 L25.346,28.333 C27.3122,28.333 28.913,27.0106 28.913,25.3866 L28.913,14.558 C28.913,14.1578 28.5882,13.833 28.188,13.833 Z" id="路径" stroke="#FFFFFF" stroke-width="0.936" fill="#FFFFFF"></path>
                        <path d="M6.1132,14.18 C6.5134,14.18 6.8382,13.8552 6.8382,13.455 L6.8382,5.1494 C6.8382,4.61 7.3022,4.175 7.8764,4.175 L21.2454,4.175 C21.8138,4.175 22.2836,4.6158 22.2836,5.1494 L22.2836,13.455 C22.2836,13.8552 22.6084,14.18 23.0086,14.18 C23.4088,14.18 23.7336,13.8552 23.7336,13.455 L23.7336,5.1494 C23.7336,3.8096 22.62,2.725 21.2454,2.725 L7.8706,2.725 C6.5018,2.725 5.3824,3.8154 5.3824,5.1494 L5.3824,13.455 C5.3882,13.8552 5.713,14.18 6.1132,14.18 Z" id="路径" stroke="#FFFFFF" stroke-width="0.936" fill="#FFFFFF"></path>
                        <path d="M11.6174,9.134 C11.2346,9.134 10.9214,9.4472 10.9214,9.83 L10.9214,9.888 C10.9214,10.2708 11.2346,10.584 11.6174,10.584 L17.864,10.584 C18.2468,10.584 18.56,10.2708 18.56,9.888 L18.56,9.83 C18.56,9.4472 18.2468,9.134 17.864,9.134 L11.6174,9.134 L11.6174,9.134 Z" id="路径" stroke="#FFFFFF" stroke-width="0.936" fill="#FFFFFF"></path>
                    </g>
                    <path d="M1.203,14.374056 L12.317202,19.6078451 C13.8281588,20.3193699 15.5778412,20.3193699 17.088798,19.6078451 L28.203,14.374056 L28.203,14.374056" id="路径-2" stroke="#FFFFFF" stroke-width="2.2" stroke-linecap="round" stroke-linejoin="round"></path>
                </g>
            </g>
        </g>
    </g>
</svg>