<?xml version="1.0" encoding="UTF-8"?>
<svg width="56px" height="56px" viewBox="0 0 56 56" version="1.1" xmlns="http://www.w3.org/2000/svg" xmlns:xlink="http://www.w3.org/1999/xlink">
    <title>-mockplus-</title>
    <g id="页面-1" stroke="none" stroke-width="1" fill="none" fill-rule="evenodd">
        <g id="联系我们/加拿大" transform="translate(-1237.000000, -397.000000)">
            <g id="编组-2" transform="translate(0.000000, 118.000000)">
                <g id="联系我们/关注我们" transform="translate(977.000000, 228.000000)">
                    <g id="icon/follow-us" transform="translate(260.000000, 51.000000)">
                        <circle id="椭圆形" fill="#FDF0F1" cx="28" cy="28" r="28"></circle>
                        <g id="icon/30px/关注我们" transform="translate(13.000000, 13.000000)" fill-rule="nonzero">
                            <rect id="矩形" fill="#000000" opacity="0" x="0" y="0" width="30" height="30"></rect>
                            <path d="M19.48125,18.7125 C19.8125,18.10625 19.59375,17.35 18.9875,17.0125 C18.48125,16.73125 17.95,16.5 17.4,16.30625 C19.8,15.1125 21.4562589,12.6375 21.4562589,9.78125001 C21.4625,5.76875001 18.19375,2.49999999 14.16875,2.49999999 C10.14375,2.49999999 6.88125,5.76875001 6.88125,9.7875 C6.88125,12.55625 8.43125001,14.96875 10.7125,16.2 C6.45624999,17.5625 3.36249999,21.55 3.36249999,26.25 C3.36249999,26.9375 3.92499999,27.5 4.6125,27.5 C5.30000001,27.5 5.86249999,26.9375 5.86249999,26.25 C5.86249999,21.8125 9.47500002,18.20625 13.90625,18.20625 C15.2625,18.20625 16.6,18.55 17.7875,19.20625 C18.39375,19.5375 19.15,19.31875 19.48125,18.7125 Z M14.16875,5.00000001 C16.8125,5.00000001 18.95625,7.15000002 18.95625,9.7875 C18.95625,12.425 16.80625,14.575 14.16875,14.575 C11.53125,14.575 9.38124999,12.425 9.38124999,9.7875 C9.38124999,7.15000002 11.53125,5.00000001 14.16875,5.00000001 Z M25.3875,21.775 L23.4125,21.775 L23.4125,19.8 C23.4125,19.1125 22.85,18.55 22.1625,18.55 C21.475,18.55 20.9125,19.1125 20.9125,19.8 L20.9125,21.775 L18.9375,21.775 C18.25,21.775 17.6875,22.3375 17.6875,23.025 C17.6875,23.7125 18.25,24.275 18.9375,24.275 L20.9125,24.275 L20.9125,26.25 C20.9125,26.9375 21.475,27.5 22.1625,27.5 C22.85,27.5 23.4125,26.9375 23.4125,26.25 L23.4125,24.275 L25.3875,24.275 C26.0778559,24.275 26.6375,23.7153559 26.6375,23.025 C26.6375,22.3346441 26.0778559,21.775 25.3875,21.775 L25.3875,21.775 Z" id="形状" fill="#EC6F79"></path>
                        </g>
                    </g>
                </g>
            </g>
        </g>
    </g>
</svg>