<svg xmlns="http://www.w3.org/2000/svg" xmlns:xlink="http://www.w3.org/1999/xlink" width="25px" height="25px" viewBox="0 0 25 25" version="1.1">
    <title>编组 2</title>
    <g id="北美官网" stroke="none" stroke-width="1" fill="none" fill-rule="evenodd">
        <g id="web/页面切图" transform="translate(-83.000000, -289.000000)" fill-rule="nonzero">
            <g id="编组-10" transform="translate(67.000000, 274.000000)">
                <g id="编组-2" transform="translate(16.470588, 15.647059)">
                    <g id="投诉建议" fill="#666666">
                        <rect id="矩形" opacity="0" x="0" y="0" width="23.8823529" height="23.8823529"/>
                        <path d="M23.2136471,11.3918824 C22.8840706,11.3918824 22.6165882,11.6593647 22.6165882,11.9889412 L22.6165882,20.9066118 C22.6165882,21.5753176 21.8189176,22.1389412 20.8731765,22.1389412 L3.10470588,22.1389412 C2.15896471,22.1389412 1.36129412,21.5753176 1.36129412,20.9066118 L1.36129412,11.9889412 C1.36129412,11.6593647 1.09381176,11.3918824 0.764235294,11.3918824 C0.434658824,11.3918824 0.167176471,11.6593647 0.167176471,11.9889412 L0.167176471,20.9066118 C0.167176471,22.2440235 1.48548235,23.3330588 3.10470588,23.3330588 L20.8731765,23.3330588 C22.4924,23.3330588 23.8107059,22.2440235 23.8107059,20.9066118 L23.8107059,11.9889412 C23.8107059,11.6593647 23.5432235,11.3918824 23.2136471,11.3918824 Z" id="路径" stroke="#666666" stroke-width="0.936"/>
                        <path d="M5.0344,11.6776471 C5.36397647,11.6776471 5.63145882,11.4101647 5.63145882,11.0805882 L5.63145882,4.24068235 C5.63145882,3.79647059 6.01357647,3.43823529 6.48644706,3.43823529 L17.4962118,3.43823529 C17.9643059,3.43823529 18.3512,3.80124706 18.3512,4.24068235 L18.3512,11.0805882 C18.3512,11.4101647 18.6186824,11.6776471 18.9482588,11.6776471 C19.2778353,11.6776471 19.5453176,11.4101647 19.5453176,11.0805882 L19.5453176,4.24068235 C19.5453176,3.13731765 18.6282353,2.24411765 17.4962118,2.24411765 L6.48167059,2.24411765 C5.35442353,2.24411765 4.43256471,3.14209412 4.43256471,4.24068235 L4.43256471,11.0805882 C4.43734118,11.4101647 4.70482353,11.6776471 5.0344,11.6776471 Z" id="路径" stroke="#666666" stroke-width="0.936"/>
                        <path d="M9.56727059,7.52211765 C9.25202353,7.52211765 8.99409412,7.78004706 8.99409412,8.09529412 L8.99409412,8.14305882 C8.99409412,8.45830588 9.25202353,8.71623529 9.56727059,8.71623529 L14.7115294,8.71623529 C15.0267765,8.71623529 15.2847059,8.45830588 15.2847059,8.14305882 L15.2847059,8.09529412 C15.2847059,7.78004706 15.0267765,7.52211765 14.7115294,7.52211765 L9.56727059,7.52211765 L9.56727059,7.52211765 Z" id="路径" stroke="#666666" stroke-width="0.936"/>
                    </g>
                    <path d="M0.990705882,11.8374579 L9.7225549,15.9493731 C11.2335118,16.6608979 12.9831941,16.6608979 14.494151,15.9493731 L23.226,11.8374579 L23.226,11.8374579" id="路径-2" stroke="#666666" stroke-width="2.2" stroke-linecap="round" stroke-linejoin="round"/>
                </g>
            </g>
        </g>
    </g>
</svg>